<?xml version="1.0" encoding="utf-8"?>
<!-- Generator: Adobe Illustrator 23.0.1, SVG Export Plug-In . SVG Version: 6.00 Build 0)  -->
<svg version="1.1" id="Layer_1" xmlns="http://www.w3.org/2000/svg" xmlns:xlink="http://www.w3.org/1999/xlink" x="0px" y="0px"
	 viewBox="0 0 483 201" style="enable-background:new 0 0 483 201;" xml:space="preserve">
<style type="text/css">
	.st0{fill:#FFFFFF;}
</style>
<g>
	<g>
		<path d="M91.3,19.9h45.7l72.9,172.4h-50.9l-12.5-30.6h-66l-12.2,30.6H18.5L91.3,19.9z M132.9,124.8l-19.1-48.7l-19.3,48.7H132.9z"
			/>
	</g>
</g>
<g>
	<g>
		<path d="M318.6,157.9l85.8-96.6h-82.9V21.2H470v34.5l-85.8,96.6H470v40.1H318.6V157.9z"/>
	</g>
</g>
<g>
	<polygon points="293.9,105.2 248.6,58.6 248.6,86.9 122.6,86.9 122.6,123.6 248.6,123.6 248.6,151.9 	"/>
</g>
<g>
	<g>
		<path class="st0" d="M82.7,11.3h45.7l72.9,172.4h-50.9L138,153.1H72l-12.2,30.6H9.9L82.7,11.3z M124.3,116.2l-19.1-48.7
			l-19.3,48.7H124.3z"/>
	</g>
</g>
<g>
	<g>
		<path class="st0" d="M310,149.2l85.8-96.6H313V12.6h148.4V47l-85.8,96.6h85.8v40.1H310V149.2z"/>
	</g>
</g>
</svg>
