<?xml version="1.0" encoding="utf-8"?>
<!-- Generator: Adobe Illustrator 23.0.1, SVG Export Plug-In . SVG Version: 6.00 Build 0)  -->
<svg version="1.1" xmlns="http://www.w3.org/2000/svg" xmlns:xlink="http://www.w3.org/1999/xlink" x="0px" y="0px"
	 viewBox="0 0 723 284" style="enable-background:new 0 0 723 284;" xml:space="preserve">
<style type="text/css">
	.st0{fill:#E4DC40;}
	.st1{fill:#5CA255;}
	.st2{fill:#FFFFFF;}
	.st3{fill:none;stroke:#000000;stroke-width:15.2017;stroke-miterlimit:10;}
</style>
<g id="Layer_2">
</g>
<g id="Layer_1">
	<rect x="253.7" y="30.8" class="st0" width="216.6" height="220.4"/>
	<polygon class="st1" points="253.7,30.8 253.7,256 61.8,256 38.1,232.2 38.1,48.9 59.4,27.5 	"/>
	<polygon class="st2" points="472.3,30.8 472.3,256 664.2,256 687.9,232.2 687.9,48.9 666.6,27.5 	"/>
	<path class="st3" d="M653.3,254.1H71.7c-17.5,0-31.8-14.2-31.8-31.8V62.6C40,45,54.2,30.8,71.7,30.8h581.6
		c17.5,0,31.8,14.2,31.8,31.8v159.8C685.1,239.9,670.9,254.1,653.3,254.1z"/>
	<line class="st3" x1="470" y1="33.7" x2="470" y2="253.9"/>
	<line class="st3" x1="255" y1="33.7" x2="255" y2="253.9"/>
</g>
</svg>
